# xmcd CD database file
#
# Track frame offsets:
#	182
#	15245
#	25512
#	34855
#	46005
#	60287
#	69345
#	80420
#	90135
#	102987
#	116170
#	127820
#	136685
#	150762
#	163895
#	175270
#	184557
#	202445
#	215545
#	229195
#	247070
#	258195
#	269195
#	282420
#	291445
#	301045
#	314487
#	324545
#
# Disc length: 4491 seconds
#
# Revision: 2
# Processed by: cddbd v1.5.1PL2 Copyright (c) Steve Scherf et al.
# Submitted via: CDex 1.51
#
DISCID=7e11891c
DTITLE=Jerry Lee Lewis - The Locust Years [CD2]
DYEAR=1965
DGENRE=Rock
TTITLE0=Got You On My Mind
TTITLE1=Mathilda
TTITLE2=Corrine, Corrina
TTITLE3=Sexy Ways
TTITLE4=Wild Side Of Life
TTITLE5=Flip, Flop And Fly
TTITLE6=Don't Let Go
TTITLE7=Maybellene
TTITLE8=Roll Over Beethoven
TTITLE9=Just In Time (mono)
TTITLE10=I Believe In You
TTITLE11=Herman The Hermit
TTITLE12=Baby, Hold Me Close
TTITLE13=Skid Row (mono)
TTITLE14=This Must Be The Place
TTITLE15=Rockin' Pneumonia And The Boogie Woogie Flu
TTITLE16=Seasons Of My Heart
TTITLE17=Big Boss Man
TTITLE18=Too Young
TTITLE19=Danny Boy (mono)
TTITLE20=Crazy Arms
TTITLE21=City Lights
TTITLE22=Funny How Time Slips Away
TTITLE23=Noth To Alaska (& Linda Gail Lewis)
TTITLE24=Walk Right In
TTITLE25=Wolverton Mountain
TTITLE26=King Of The Road
TTITLE27=Detroit City
EXTD=YEAR: 1965
EXTT0=
EXTT1=
EXTT2=
EXTT3=
EXTT4=
EXTT5=
EXTT6=
EXTT7=
EXTT8=
EXTT9=
EXTT10=
EXTT11=
EXTT12=
EXTT13=
EXTT14=
EXTT15=
EXTT16=
EXTT17=
EXTT18=
EXTT19=
EXTT20=
EXTT21=
EXTT22=
EXTT23=
EXTT24=
EXTT25=
EXTT26=
EXTT27=
PLAYORDER=
